<svg width="33" height="33" viewBox="0 0 33 33" fill="none" xmlns="http://www.w3.org/2000/svg">
<path d="M21.3263 3.89136H11.6737C8.25 3.89136 7.49375 5.59636 7.05375 7.68636L5.5 15.1251H27.5L25.9463 7.68636C25.5063 5.59636 24.75 3.89136 21.3263 3.89136Z" stroke="#0B1222" stroke-width="2.0625" stroke-linecap="round" stroke-linejoin="round"/>
<path d="M30.2363 27.2525C30.3875 28.8612 29.095 30.25 27.445 30.25H24.86C23.375 30.25 23.1688 29.6175 22.9075 28.8337L22.6325 28.0088C22.2475 26.8813 22 26.125 20.02 26.125H12.98C11 26.125 10.7113 26.9775 10.3675 28.0088L10.0925 28.8337C9.83125 29.6175 9.625 30.25 8.14 30.25H5.555C3.905 30.25 2.6125 28.8612 2.76375 27.2525L3.53375 18.8787C3.72625 16.8162 4.125 15.125 7.7275 15.125H25.2725C28.875 15.125 29.2738 16.8162 29.4663 18.8787L30.2363 27.2525Z" stroke="#0B1222" stroke-width="2.0625" stroke-linecap="round" stroke-linejoin="round"/>
<path d="M5.5 11H4.125" stroke="#0B1222" stroke-width="2.0625" stroke-linecap="round" stroke-linejoin="round"/>
<path d="M28.875 11H27.5" stroke="#0B1222" stroke-width="2.0625" stroke-linecap="round" stroke-linejoin="round"/>
<path d="M16.5 4.125V6.875" stroke="#0B1222" stroke-width="2.0625" stroke-linecap="round" stroke-linejoin="round"/>
<path d="M14.4375 6.875H18.5625" stroke="#0B1222" stroke-width="2.0625" stroke-linecap="round" stroke-linejoin="round"/>
<path d="M8.25 20.625H12.375" stroke="#0B1222" stroke-width="2.0625" stroke-linecap="round" stroke-linejoin="round"/>
<path d="M20.625 20.625H24.75" stroke="#0B1222" stroke-width="2.0625" stroke-linecap="round" stroke-linejoin="round"/>
</svg>
