<svg width="64" height="63" viewBox="0 0 64 63" fill="none" xmlns="http://www.w3.org/2000/svg">
<path d="M64 31C62.6667 31 61.3333 31 60 31C60.0343 33.9409 59.6098 36.8787 58.732 39.6869C55.339 51.0334 44.0411 59.5417 32 59.5C16.8343 60.0513 2.80335 46.4597 3 31C2.4429 15.5674 16.2735 1.29751 32 1.5C44.4502 1.17747 56.5572 9.75484 60.444 21.7571C61.444 24.7253 61.9678 27.8537 62 31C62.0345 27.8538 61.5773 24.7043 60.6343 21.6954C56.9886 9.53881 44.885 0.44818 32 0.5C15.7668 -0.0746014 0.780013 14.4729 1 31C0.419566 47.5 15.206 62.7258 32 62.5C45.2941 62.8327 58.2067 53.673 62.3463 40.8606C63.4116 37.6917 63.968 34.3517 64 31ZM60 31H64H62H60Z" fill="#FCFCFC"/>
</svg>
