<svg width="184" height="64" viewBox="0 0 184 64" fill="none" xmlns="http://www.w3.org/2000/svg">
<path d="M106.259 1.75874C106.541 1.81042 106.822 1.86211 107.112 1.91536C116.582 3.71735 125.211 7.34827 133.806 11.6166C135.436 12.4249 137.078 13.2076 138.726 13.9789C138.971 14.0949 139.217 14.2109 139.47 14.3304C139.698 14.4364 139.925 14.5424 140.16 14.6516C140.358 14.7442 140.556 14.8368 140.76 14.9323C142.091 15.4785 143.478 15.5461 144.898 15.6644C145.142 15.6853 145.386 15.7061 145.637 15.7276C146.432 15.7952 147.226 15.8614 148.021 15.9274C148.291 15.9502 148.561 15.973 148.839 15.9965C152.57 16.311 156.3 16.5921 160.041 16.7706C161.723 16.8573 163.337 17.0473 164.993 17.3546C167.921 17.8716 170.545 17.2944 173.358 16.5079C174.846 16.0988 176.13 15.8886 177.676 15.9741C177.769 16.0655 177.862 16.157 177.958 16.2513C177.851 17.7497 177.459 18.9462 176.856 20.2972C176.779 20.4757 176.702 20.6542 176.622 20.8382C176.434 21.2727 176.242 21.7059 176.05 22.1388C175.857 22.0864 175.664 22.034 175.465 21.98C175.201 21.9094 174.938 21.8388 174.667 21.7661C174.41 21.6969 174.153 21.6277 173.888 21.5564C171.657 20.9981 169.459 20.6369 167.169 20.4074C166.846 20.3747 166.522 20.3419 166.189 20.3082C161.819 19.8862 157.436 19.6537 153.053 19.407C151.224 19.3037 149.394 19.1974 147.565 19.0911C146.935 19.0548 146.306 19.0193 145.676 18.984C142.526 18.8047 142.526 18.8047 141.097 18.6435C139.84 18.5041 138.596 18.4958 137.332 18.5046C137.088 18.5055 136.845 18.5064 136.593 18.5073C135.808 18.5113 135.023 18.5179 134.238 18.5252C133.969 18.5274 133.701 18.5296 133.424 18.5318C129.404 18.5677 125.451 18.7672 121.451 19.1792C119.92 19.3202 118.385 19.3843 116.849 19.4431C115.185 19.5171 113.539 19.6848 111.884 19.8663C108.224 20.2622 104.554 20.4749 100.88 20.6942C99.8689 20.7557 98.858 20.8175 97.8472 20.8794C97.2254 20.9174 96.6035 20.9551 95.9817 20.9923C94.7321 21.0677 93.4833 21.1447 92.2351 21.2416C89.4681 21.4555 86.7159 21.541 83.9412 21.5657C83.4837 21.5705 83.0262 21.5753 82.5687 21.5802C81.6148 21.5899 80.661 21.5985 79.7071 21.6063C78.747 21.6144 77.787 21.6245 76.827 21.6364C72.1529 21.6942 67.4899 21.7361 62.8221 21.4492C62.3533 21.4206 62.3533 21.4206 61.8749 21.3914C60.2629 21.2757 58.7681 21.0583 57.2102 20.6262C56.9955 20.0338 56.9955 20.0338 56.9188 19.2306C57.8094 17.331 59.3342 16.4784 61.2231 15.7518C62.3956 15.5023 63.59 15.4522 64.7851 15.4072C64.9801 15.3959 65.1752 15.3846 65.3762 15.3729C66.3634 15.3566 66.855 15.4286 67.6172 16.0724C68.1866 17.0839 68.3858 18.0049 68.6609 19.1315C81.9175 19.1959 95.0171 18.8204 108.217 17.576C110.291 17.381 112.367 17.2033 114.443 17.0323C114.894 16.995 114.894 16.995 115.353 16.9568C120.195 16.5609 125.011 16.3731 129.869 16.3778C129.867 16.1933 129.866 16.0088 129.864 15.8187C129.629 15.7522 129.394 15.6857 129.152 15.6172C128.066 15.2327 127.105 14.7095 126.11 14.1379C122.505 12.1137 118.858 10.4063 114.988 8.95446C114.781 8.86828 114.575 8.7821 114.363 8.69331C112.494 7.92188 110.621 7.45088 108.645 7.03339C108.326 6.9643 108.006 6.89521 107.677 6.82403C103.607 5.95347 99.5842 5.15976 95.4098 5.11921C95.1776 5.11689 94.9455 5.11457 94.7064 5.11218C86.6273 5.05957 79.1784 5.96193 71.5545 8.77587C70.7804 9.05971 70.0022 9.32923 69.2226 9.59762C65.7226 10.8236 62.3303 12.2543 58.9523 13.7789C58.6587 13.9111 58.6587 13.9111 58.3593 14.0459C55.1973 15.4749 52.0585 16.9697 49.0322 18.6703C45.773 20.4649 42.2179 20.562 38.5774 20.8563C28.9163 21.6474 19.9094 23.6394 10.8529 27.1687C11.0588 27.1711 11.2647 27.1734 11.4769 27.1758C12.4108 27.1888 13.3446 27.2079 14.2784 27.2272C14.6025 27.2307 14.9265 27.2343 15.2604 27.238C15.7281 27.2489 15.7281 27.2489 16.2053 27.26C16.4923 27.2649 16.7793 27.2698 17.075 27.2749C17.9318 27.4022 18.3281 27.6515 18.97 28.2185C18.3491 30.3718 16.1141 31.5935 14.2466 32.6358C11.9096 33.7628 9.87409 33.9273 7.31022 33.9264C7.03776 33.9274 6.76529 33.9284 6.48457 33.9295C5.81617 33.9319 5.1478 33.9329 4.47939 33.9328C4.33761 36.9745 4.5548 39.4222 5.71801 42.2864C6.08203 43.187 6.42493 44.0956 6.76916 45.004C6.94879 45.4765 7.13059 45.9481 7.31477 46.4189C7.39783 46.6336 7.4809 46.8483 7.56648 47.0695C7.64119 47.2603 7.71589 47.4511 7.79287 47.6478C7.95469 48.1627 7.95469 48.1627 7.96177 49.0014C10.6389 49.1634 13.3159 49.3253 16.0741 49.4921C17.2184 52.558 17.2184 52.558 17.2231 53.1171C12.6755 52.9735 8.16986 52.6934 3.6708 51.9909C3.37515 51.9472 3.37515 51.9472 3.07352 51.9027C1.99045 51.7213 1.24839 51.4837 0.427452 50.7426C0.571375 49.6706 1.00299 49.198 1.80643 48.4942C3.05743 47.6449 3.05743 47.6449 3.75636 47.639C3.68292 47.4481 3.60947 47.2571 3.5338 47.0604C1.83009 42.6313 1.83009 42.6313 1.49543 41.7528C1.30777 41.27 1.11413 40.7895 0.909076 40.3139C-0.00527198 38.1677 0.253671 36.3099 0.776367 34.1213C0.82547 33.9128 0.874572 33.7043 0.925163 33.4895C1.57161 30.8453 2.44699 28.4279 4.75234 26.7935C5.47658 26.3607 6.2104 25.9634 6.96011 25.5765C7.37823 25.3585 7.37823 25.3585 7.8048 25.1361C16.5877 20.6926 27.135 17.7623 36.9883 17.3271C42.7738 17.051 46.8183 15.8265 51.8272 12.931C53.9358 11.7197 56.1315 10.7062 58.3411 9.69498C58.5371 9.60476 58.733 9.51455 58.9349 9.4216C73.5519 2.69439 90.1734 -1.22653 106.259 1.75874Z" fill="#14213D"/>
<path d="M147.892 30.1326C148.339 31.0841 148.383 31.1785 148.595 31.6463L148.606 31.6696L148.618 31.694C148.798 32.0624 149.042 32.5717 149.406 33.0184C149.821 33.5267 150.332 33.8951 150.979 34.1721L151.334 34.3244L151.719 34.3114C152.887 34.2732 153.66 33.9741 154.518 33.567C155.285 33.2058 155.615 33.077 155.947 33.0764C156.92 33.7625 157.848 34.6794 158.557 35.6443C158.556 35.7431 158.545 35.8174 158.528 35.8838C158.485 36.0549 158.393 36.2716 158.159 36.7122L158.124 36.7799L158.094 36.8514C157.894 37.3271 157.68 37.8082 157.588 38.3216C157.494 38.8461 157.534 39.3646 157.562 39.8531L157.592 40.3743L157.904 40.7926C158.895 42.121 160.311 42.5346 161.102 42.834L161.92 43.1533L161.948 46.5116C161.148 46.9335 160.731 47.1468 160.415 47.2765C160.094 47.4078 159.927 47.4408 159.229 47.5561L158.168 47.732L157.854 48.7601C157.539 49.7875 157.511 50.6985 157.711 51.5935C157.885 52.3747 158.23 53.0986 158.526 53.7175C158.668 54.095 158.71 54.2369 158.727 54.3447C158.732 54.3747 158.736 54.4131 158.735 54.4716C158.391 54.9163 157.982 55.3379 157.478 55.8417L157.454 55.8653L157.431 55.8909C157.285 56.0488 157.139 56.2072 156.989 56.3693C156.724 56.6394 156.501 56.8485 156.282 57.0276C155.893 56.9685 155.544 56.8219 154.858 56.5171L154.789 56.4884L154.531 56.392C153.265 55.9367 152.28 55.9114 151.076 55.9954L149.847 56.0809L149.522 57.2693C149.467 57.4696 149.412 57.6701 149.356 57.8752C149.064 58.6761 148.694 59.4076 148.252 60.2098L145.08 60.2366C144.662 59.3086 144.622 59.2159 144.425 58.7567L144.418 58.7411L144.411 58.7246L144.228 58.3316C144.162 58.1987 144.088 58.0622 143.997 57.9175C143.839 57.6677 143.63 57.3964 143.354 57.0333L143.013 56.5859L142.476 56.4225L142.175 56.3371C141.475 56.1507 140.788 56.0614 140.066 56.1313C139.25 56.2104 138.521 56.4801 137.805 56.833C137.562 56.9521 137.404 57.0269 137.276 57.0778C137.157 57.1252 137.102 57.1366 137.082 57.1399C137.07 57.1419 137.052 57.1443 137.007 57.1386C136.988 57.1362 136.963 57.1303 136.931 57.1236C136.445 56.7199 135.994 56.3158 135.538 55.8727L135.493 55.8301L135.034 55.416C134.818 55.2067 134.765 55.1542 134.689 55.0653C134.641 55.0089 134.587 54.9402 134.505 54.8354C134.603 54.235 134.858 53.6341 135.254 52.7421L135.319 52.5951L135.356 52.4395C135.488 51.8837 135.559 51.3442 135.515 50.7643C135.473 50.1947 135.327 49.6831 135.15 49.1853L134.938 48.5923L134.396 48.2727L133.827 47.9513C133.367 47.7051 132.93 47.5065 132.42 47.3157L132.104 47.2021C131.841 47.1049 131.577 47.0068 131.312 46.909L131.281 43.3105C133.133 42.3664 133.119 42.3837 133.577 42.2071L133.685 42.1652L133.787 42.1086C133.922 42.0347 134.476 41.7728 134.844 41.2755C135.042 41.009 135.146 40.7459 135.208 40.5624C135.264 40.3949 135.313 40.2023 135.352 40.0563L135.401 39.8713L135.408 39.6808C135.452 38.538 135.2 37.7921 134.851 37.0292L134.695 36.7004C134.445 36.1777 134.399 36.0325 134.385 35.9471C134.385 35.9429 134.374 35.9046 134.401 35.7731C134.8 35.287 135.198 34.8369 135.638 34.3808L135.662 34.3562L135.685 34.3306C135.817 34.1826 135.948 34.0338 136.083 33.8819C136.307 33.649 136.488 33.477 136.665 33.333C137.296 33.3921 137.865 33.5608 138.552 33.866L138.586 33.8813L138.62 33.8947C139.269 34.1501 139.903 34.3073 140.594 34.3204C141.269 34.3332 141.894 34.2055 142.509 34.0308L143.434 33.7681L143.701 32.8459C143.763 32.6341 143.824 32.4218 143.887 32.2046C144.126 31.5237 144.429 30.8634 144.769 30.159L147.892 30.1326Z" stroke="#14213D" stroke-width="3.47107"/>
<path d="M35.5396 26.5935C35.8104 26.5867 36.0812 26.5799 36.3602 26.5729C40.7778 26.5327 44.854 28.251 48.0565 31.2575C51.4604 34.6078 53.4561 38.9705 53.5959 43.7409C53.6225 48.5717 51.9553 52.9219 48.6105 56.4488C48.4128 56.6476 48.2152 56.8464 48.0116 57.0513C47.8684 57.2064 47.7252 57.3615 47.5776 57.5213C46.502 58.5866 45.2071 59.256 43.8771 59.952C43.6015 60.0977 43.6015 60.0977 43.3204 60.2463C39.6068 62.1124 34.8091 62.2342 30.817 61.2331C26.0776 59.6602 22.3086 56.3977 19.9399 52.0285C18.0449 48.0822 17.5097 43.3437 18.7571 39.0931C20.7141 33.7739 24.0603 30.052 29.2238 27.6462C31.3704 26.8067 33.2516 26.6053 35.5396 26.5935ZM26.85 34.3033C26.6828 34.4377 26.5156 34.5721 26.3434 34.7106C24.2938 36.5049 22.6939 39.7421 22.4452 42.4487C22.1792 46.5184 23.193 49.9592 25.8379 53.097C27.1797 54.5015 28.6552 55.5012 30.3914 56.3613C30.6216 56.4754 30.8517 56.5895 31.0889 56.7071C34.2211 58.0331 37.8869 57.7914 41.038 56.6416C42.383 56.0199 43.5055 55.2398 44.6331 54.2839C44.83 54.1218 45.0268 53.9598 45.2296 53.7928C47.7414 51.5072 49.1055 48.1425 49.3749 44.8053C49.5003 41.1854 48.209 37.8782 45.8596 35.1475C43.193 32.373 40.2195 30.8701 36.3766 30.741C32.5733 30.702 29.6796 31.709 26.85 34.3033Z" fill="#14213D"/>
<path d="M39.8961 35.4677C42.3758 36.9441 44.2409 38.9026 45.0862 41.6983C45.615 44.6885 45.2189 47.284 43.4772 49.8201C41.99 51.8124 39.8168 53.1124 37.3573 53.5065C34.7067 53.7578 32.6096 53.4788 30.4367 51.8808C28.0439 49.8656 26.7625 47.6993 26.2871 44.582C26.137 42.0938 27.0415 39.9756 28.6297 38.0977C31.5882 34.985 35.7902 33.5718 39.8961 35.4677Z" fill="#14213D"/>
<path d="M55.5033 50.2782C79.0294 50.0795 102.556 49.8808 126.795 49.6761C127.934 52.1828 127.934 52.1828 127.939 52.7419C103.675 52.9469 79.4105 53.1518 54.411 53.3629C54.7472 52.3252 55.1068 51.2943 55.5033 50.2782Z" fill="#14213D"/>
<path d="M122.943 23.9859C123.035 23.9851 123.127 23.9844 123.222 23.9836C122.865 31.5969 120.42 39.6082 114.733 45.0248C110.753 48.2755 104.692 47.7761 99.8169 47.9816C99.482 47.9962 99.147 48.0108 98.8019 48.0258C91.9573 48.3159 85.1109 48.4031 78.261 48.4608C77.7141 48.4654 77.1673 48.4701 76.6204 48.475C70.5031 48.5295 64.3959 48.5628 58.2825 48.2975C59.1926 47.6796 59.5433 47.6396 60.6134 47.5702C60.9232 47.5488 61.2331 47.5274 61.5524 47.5053C61.8913 47.4844 62.2303 47.4636 62.5795 47.442C63.1233 47.4053 63.667 47.3686 64.2108 47.3318C64.7932 47.2928 65.3757 47.255 65.9582 47.2175C67.8016 47.0985 69.6445 46.9704 71.4874 46.8433C72.116 46.7999 72.7446 46.7569 73.3732 46.7139C79.6174 46.2856 85.854 45.7801 92.0873 45.216C92.4595 45.1826 92.8317 45.1493 93.2039 45.1159C95.5768 44.9028 97.9485 44.6796 100.32 44.446C101.085 44.3708 101.851 44.2985 102.617 44.2291C103.686 44.1307 104.754 44.0234 105.822 43.9139C106.136 43.8868 106.45 43.8597 106.773 43.8317C109.304 43.5568 111.628 42.7513 113.502 40.969C113.664 40.7237 113.826 40.4783 113.993 40.2255C114.289 39.784 114.289 39.784 114.591 39.3336C114.806 38.9927 115.021 38.6515 115.235 38.3103C115.496 37.9104 115.757 37.5107 116.018 37.111C118.695 32.9528 121.05 28.5583 122.943 23.9859Z" fill="#14213D"/>
<path d="M176.962 30.7987C178.145 30.5576 179.14 30.4687 180.317 30.7704C181.328 31.8615 181.938 33.0444 182.584 34.386C182.697 34.5681 182.811 34.7502 182.927 34.9379C183.612 36.6443 182.99 38.2867 182.386 39.9096C182.302 40.1385 182.219 40.3675 182.132 40.6033C181.471 42.3474 180.698 44.0204 179.849 45.6802C179.681 46.0094 179.681 46.0094 179.509 46.3452C179.191 46.948 178.858 47.5361 178.506 48.1205C178.406 48.2876 178.306 48.4548 178.203 48.627C177.569 49.5409 176.991 49.9251 175.942 50.1845C175.5 50.2613 175.056 50.3298 174.611 50.3901C174.4 50.4223 174.188 50.4544 173.97 50.4876C173.324 50.5792 172.677 50.6556 172.028 50.7265C171.799 50.7522 171.571 50.7778 171.335 50.8043C169.442 51.0048 167.574 51.0703 165.67 51.0248C165.793 50.6214 165.918 50.2185 166.044 49.8159C166.113 49.5915 166.183 49.3671 166.254 49.1359C166.487 48.5016 166.487 48.5016 167.039 47.6582C167.721 47.5192 167.721 47.5192 168.572 47.4705C168.879 47.4491 169.186 47.4278 169.502 47.4058C169.986 47.3779 169.986 47.3779 170.479 47.3495C171.113 47.3127 171.746 47.2725 172.379 47.2286C172.661 47.2125 172.943 47.1965 173.233 47.1799C174.34 46.9839 175.111 46.541 175.845 45.6911C178.757 41.1998 178.757 41.1998 179.523 36.0894C179.209 35.2958 178.814 34.5569 178.403 33.8097C178.193 33.4174 177.983 33.0249 177.774 32.6322C177.633 32.3748 177.633 32.3748 177.49 32.1123C177.249 31.6351 177.249 31.6351 176.962 30.7987Z" fill="#14213D"/>
<path d="M175.483 24.4453C177.447 25.932 178.777 28.1269 180.033 30.2139C180.034 30.3984 180.036 30.5829 180.037 30.773C168.998 31.1689 168.998 31.1689 165.701 28.3166C165.533 28.1537 165.366 27.9908 165.194 27.8229C164.989 27.6376 164.784 27.4522 164.573 27.2613C164.066 26.714 164.066 26.714 163.919 25.859C164.052 25.0366 164.052 25.0366 164.523 24.5914C167.562 22.6777 172.454 22.522 175.483 24.4453Z" fill="#FCA311"/>
<path d="M118.197 24.8647C115.769 27.3428 115.769 27.3428 114.456 27.4771C111.19 27.4961 107.937 27.2677 104.68 27.0481C103.66 26.9797 102.641 26.9144 101.621 26.8493C100.963 26.8059 100.304 26.7624 99.645 26.7186C99.196 26.69 99.196 26.69 98.7378 26.6609C96.635 26.5163 94.5653 26.2493 92.4835 25.9206C92.4827 25.8284 92.482 25.7361 92.4812 25.6411C96.1331 25.3108 99.7864 25.2089 103.451 25.1115C103.759 25.103 104.067 25.0945 104.385 25.0857C108.989 24.9584 113.591 24.8602 118.197 24.8647Z" fill="#14213D"/>
</svg>
