<svg width="71" height="71" viewBox="0 0 71 71" fill="none" xmlns="http://www.w3.org/2000/svg">
<path d="M35.855 37.8073C35.6479 37.7777 35.3816 37.7777 35.145 37.8073C29.9383 37.6298 25.7966 33.3698 25.7966 28.1335C25.7966 22.7789 30.1158 18.4302 35.5 18.4302C40.8545 18.4302 45.2033 22.7789 45.2033 28.1335C45.1737 33.3698 41.0616 37.6298 35.855 37.8073Z" stroke="#E8E9EC" stroke-width="1.89333" stroke-linecap="round" stroke-linejoin="round"/>
<path d="M55.4391 57.3327C50.1733 62.1548 43.1916 65.0836 35.5 65.0836C27.8083 65.0836 20.8266 62.1548 15.5608 57.3327C15.8566 54.5519 17.6316 51.8302 20.797 49.7002C28.9029 44.3161 42.1562 44.3161 50.2029 49.7002C53.3683 51.8302 55.1433 54.5519 55.4391 57.3327Z" stroke="#E8E9EC" stroke-width="1.89333" stroke-linecap="round" stroke-linejoin="round"/>
<path d="M35.5001 65.0832C51.8385 65.0832 65.0834 51.8383 65.0834 35.4998C65.0834 19.1614 51.8385 5.9165 35.5001 5.9165C19.1617 5.9165 5.91675 19.1614 5.91675 35.4998C5.91675 51.8383 19.1617 65.0832 35.5001 65.0832Z" stroke="#E8E9EC" stroke-width="1.89333" stroke-linecap="round" stroke-linejoin="round"/>
</svg>
