<svg width="24" height="24" viewBox="0 0 24 24" fill="none" xmlns="http://www.w3.org/2000/svg">
<path d="M11.994 21.75C10.6563 21.75 9.39542 21.4945 8.21125 20.9835C7.02708 20.4725 5.993 19.775 5.109 18.891C4.225 18.007 3.5275 16.9729 3.0165 15.7887C2.5055 14.6046 2.25 13.3437 2.25 12.006C2.25 10.652 2.5055 9.38608 3.0165 8.20825C3.5275 7.03042 4.225 5.99875 5.109 5.11325C5.993 4.22792 7.02708 3.52942 8.21125 3.01775C9.39542 2.50592 10.6563 2.25 11.994 2.25C13.348 2.25 14.6139 2.50592 15.7917 3.01775C16.9696 3.52958 18.0012 4.22833 18.8867 5.114C19.7721 5.99967 20.4706 7.03158 20.9823 8.20975C21.4941 9.38792 21.75 10.6513 21.75 12C21.75 13.3417 21.4941 14.6046 20.9823 15.7887C20.4706 16.9729 19.7721 18.007 18.8867 18.891C18.0012 19.775 16.9696 20.4725 15.7917 20.9835C14.6139 21.4945 13.348 21.75 11.994 21.75ZM12 19.9C12.4435 19.2868 12.8272 18.6482 13.1512 17.984C13.4754 17.3197 13.7375 16.6167 13.9375 15.875H10.0625C10.2625 16.6167 10.5246 17.3197 10.8488 17.984C11.1728 18.6482 11.5565 19.2868 12 19.9ZM9.55 19.475C9.23333 18.9 8.95625 18.3146 8.71875 17.7188C8.48125 17.1229 8.28675 16.5083 8.13525 15.875H5.1625C5.64583 16.7333 6.25833 17.4688 7 18.0813C7.74167 18.6938 8.59167 19.1583 9.55 19.475ZM14.45 19.475C15.4083 19.1583 16.2583 18.6938 17 18.0813C17.7417 17.4688 18.3542 16.7333 18.8375 15.875H15.8648C15.7133 16.5083 15.5188 17.1229 15.2812 17.7188C15.0437 18.3146 14.7667 18.9 14.45 19.475ZM4.3875 14H7.75C7.7 13.6583 7.6625 13.325 7.6375 13C7.6125 12.675 7.6 12.3417 7.6 12C7.6 11.6583 7.6125 11.325 7.6375 11C7.6625 10.675 7.7 10.3417 7.75 10H4.3875C4.29583 10.3417 4.22917 10.6737 4.1875 10.996C4.14583 11.3182 4.125 11.6528 4.125 12C4.125 12.3472 4.14583 12.6818 4.1875 13.004C4.22917 13.3263 4.29583 13.6583 4.3875 14ZM9.6375 14H14.3625C14.4208 13.6583 14.4625 13.3263 14.4875 13.004C14.5125 12.6818 14.525 12.3472 14.525 12C14.525 11.6528 14.5125 11.3182 14.4875 10.996C14.4625 10.6737 14.4208 10.3417 14.3625 10H9.6375C9.57917 10.3417 9.5375 10.6737 9.5125 10.996C9.4875 11.3182 9.475 11.6528 9.475 12C9.475 12.3472 9.4875 12.6818 9.5125 13.004C9.5375 13.3263 9.57917 13.6583 9.6375 14ZM16.25 14H19.6125C19.7042 13.6583 19.7708 13.3263 19.8125 13.004C19.8542 12.6818 19.875 12.3472 19.875 12C19.875 11.6528 19.8542 11.3182 19.8125 10.996C19.7708 10.6737 19.7042 10.3417 19.6125 10H16.25C16.3 10.3417 16.3375 10.675 16.3625 11C16.3875 11.325 16.4 11.6583 16.4 12C16.4 12.3417 16.3875 12.675 16.3625 13C16.3375 13.325 16.3 13.6583 16.25 14ZM15.8648 8.125H18.8375C18.3542 7.26667 17.7417 6.53125 17 5.91875C16.2583 5.30625 15.4083 4.84167 14.45 4.525C14.7667 5.1 15.0437 5.68542 15.2812 6.28125C15.5188 6.87708 15.7133 7.49167 15.8648 8.125ZM10.0625 8.125H13.9375C13.7375 7.38333 13.4754 6.68033 13.1512 6.016C12.8272 5.35183 12.4435 4.71317 12 4.1C11.5565 4.71317 11.1728 5.35183 10.8488 6.016C10.5246 6.68033 10.2625 7.38333 10.0625 8.125ZM5.1625 8.125H8.13525C8.28675 7.49167 8.48125 6.87708 8.71875 6.28125C8.95625 5.68542 9.23333 5.1 9.55 4.525C8.59167 4.84167 7.74167 5.30625 7 5.91875C6.25833 6.53125 5.64583 7.26667 5.1625 8.125Z" fill="#E3E3E3"/>
</svg>
