<svg width="24" height="25" viewBox="0 0 24 25" fill="none" xmlns="http://www.w3.org/2000/svg">
<path d="M19.7867 7.4386L14.1665 3.50641C12.6346 2.43311 10.2831 2.49166 8.80976 3.63326L3.92136 7.44835C2.94563 8.20942 2.1748 9.77059 2.1748 11V17.7325C2.1748 20.2206 4.19456 22.2501 6.68267 22.2501H17.201C19.6891 22.2501 21.7089 20.2304 21.7089 17.7423V11.1269C21.7089 9.80962 20.86 8.18991 19.7867 7.4386ZM12.6736 18.3472C12.6736 18.7473 12.3419 19.079 11.9418 19.079C11.5418 19.079 11.21 18.7473 11.21 18.3472V15.4201C11.21 15.02 11.5418 14.6883 11.9418 14.6883C12.3419 14.6883 12.6736 15.02 12.6736 15.4201V18.3472Z" fill="#E5940F"/>
</svg>
