<svg width="24" height="25" viewBox="0 0 24 25" fill="none" xmlns="http://www.w3.org/2000/svg">
<path d="M13.3261 6.63843H7.08145C6.82776 6.63843 6.58383 6.64818 6.34966 6.67746C3.72495 6.90187 2.40771 8.45328 2.40771 11.3122V15.2151C2.40771 19.118 3.96888 19.8888 7.08145 19.8888H7.47174C7.6864 19.8888 7.96937 20.0352 8.09621 20.201L9.26708 21.7622C9.78422 22.455 10.6233 22.455 11.1405 21.7622L12.3114 20.201C12.4577 20.0059 12.6919 19.8888 12.9358 19.8888H13.3261C16.185 19.8888 17.7364 18.5813 17.9608 15.9469C17.9901 15.7127 17.9999 15.4688 17.9999 15.2151V11.3122C17.9999 8.19959 16.4387 6.63843 13.3261 6.63843ZM6.79849 14.4443C6.25208 14.4443 5.82276 14.0052 5.82276 13.4685C5.82276 12.9319 6.26184 12.4928 6.79849 12.4928C7.33514 12.4928 7.77422 12.9319 7.77422 13.4685C7.77422 14.0052 7.33514 14.4443 6.79849 14.4443ZM10.2038 14.4443C9.65737 14.4443 9.22805 14.0052 9.22805 13.4685C9.22805 12.9319 9.66713 12.4928 10.2038 12.4928C10.7404 12.4928 11.1795 12.9319 11.1795 13.4685C11.1795 14.0052 10.7502 14.4443 10.2038 14.4443ZM13.6188 14.4443C13.0724 14.4443 12.6431 14.0052 12.6431 13.4685C12.6431 12.9319 13.0822 12.4928 13.6188 12.4928C14.1555 12.4928 14.5946 12.9319 14.5946 13.4685C14.5946 14.0052 14.1555 14.4443 13.6188 14.4443Z" fill="#E5940F"/>
<path d="M21.9028 7.40933V11.3122C21.9028 13.2637 21.2979 14.5907 20.088 15.3225C19.7952 15.4981 19.4537 15.2639 19.4537 14.9224L19.4635 11.3122C19.4635 7.40933 17.2291 5.17492 13.3262 5.17492L7.38397 5.18467C7.04247 5.18467 6.80829 4.84317 6.98392 4.55045C7.71572 3.34055 9.04271 2.7356 10.9844 2.7356H17.2291C20.3416 2.7356 21.9028 4.29676 21.9028 7.40933Z" fill="#E5940F"/>
</svg>
