<svg width="25" height="25" viewBox="0 0 25 25" fill="none" xmlns="http://www.w3.org/2000/svg">
<path d="M18.1456 11.4635V15.3665C18.1456 15.6201 18.1358 15.8641 18.1066 16.0982C17.8822 18.7327 16.3308 20.0402 13.4719 20.0402H13.0816C12.8376 20.0402 12.6035 20.1573 12.4571 20.3524L11.2862 21.9136C10.7691 22.6063 9.92997 22.6063 9.41283 21.9136L8.24195 20.3524C8.1151 20.1865 7.83216 20.0402 7.6175 20.0402H7.22721C4.11464 20.0402 2.55347 19.2694 2.55347 15.3665V11.4635C2.55347 8.60466 3.87071 7.05325 6.49542 6.82883C6.72959 6.79956 6.97352 6.78979 7.22721 6.78979H13.4719C16.5844 6.78979 18.1456 8.35097 18.1456 11.4635Z" stroke="#626A7D" stroke-width="1.46359" stroke-miterlimit="10" stroke-linecap="round" stroke-linejoin="round"/>
<path d="M22.0485 7.56059V11.4635C22.0485 14.3321 20.7312 15.8738 18.1065 16.0982C18.1358 15.864 18.1456 15.6201 18.1456 15.3664V11.4635C18.1456 8.35093 16.5844 6.78975 13.4718 6.78975H7.22716C6.97347 6.78975 6.72954 6.79952 6.49536 6.82879C6.71978 4.20408 8.27119 2.88684 11.1301 2.88684H17.3747C20.4873 2.88684 22.0485 4.44801 22.0485 7.56059Z" stroke="#626A7D" stroke-width="1.46359" stroke-miterlimit="10" stroke-linecap="round" stroke-linejoin="round"/>
<path d="M13.7699 13.8638H13.7787" stroke="#626A7D" stroke-width="1.95146" stroke-linecap="round" stroke-linejoin="round"/>
<path d="M10.3549 13.8638H10.3637" stroke="#626A7D" stroke-width="1.95146" stroke-linecap="round" stroke-linejoin="round"/>
<path d="M6.93983 13.8638H6.94861" stroke="#626A7D" stroke-width="1.95146" stroke-linecap="round" stroke-linejoin="round"/>
</svg>
