<svg width="24" height="25" viewBox="0 0 24 25" fill="none" xmlns="http://www.w3.org/2000/svg">
<path d="M11.9563 5.32104C7.29235 5.32104 3.49677 9.11663 3.49677 13.7806C3.49677 18.4446 7.29235 22.2499 11.9563 22.2499C16.6203 22.2499 20.4159 18.4543 20.4159 13.7904C20.4159 9.12638 16.6203 5.32104 11.9563 5.32104ZM12.6881 13.4684C12.6881 13.8684 12.3564 14.2002 11.9563 14.2002C11.5563 14.2002 11.2245 13.8684 11.2245 13.4684V8.58973C11.2245 8.18969 11.5563 7.85794 11.9563 7.85794C12.3564 7.85794 12.6881 8.18969 12.6881 8.58973V13.4684Z" fill="#E5940F"/>
<path d="M14.7762 4.15016H9.13648C8.74619 4.15016 8.43396 3.83792 8.43396 3.44763C8.43396 3.05734 8.74619 2.73535 9.13648 2.73535H14.7762C15.1665 2.73535 15.4787 3.04758 15.4787 3.43788C15.4787 3.82817 15.1665 4.15016 14.7762 4.15016Z" fill="#E5940F"/>
</svg>
