<svg width="39" height="49" viewBox="0 0 39 49" fill="none" xmlns="http://www.w3.org/2000/svg">
<path d="M0 46.0371V4.89545C0 3.5005 0.428241 2.33586 1.28472 1.40152C2.1412 0.467172 3.2088 0 4.4875 0H17.7347C19.0134 0 20.081 0.467172 20.9375 1.40152C21.794 2.33586 22.2222 3.5005 22.2222 4.89545V23.0773H24.7861C26.0204 23.0773 27.0768 23.5566 27.9556 24.5152C28.8343 25.4737 29.2736 26.626 29.2736 27.972V41.8417C29.2736 42.9331 29.6287 43.8664 30.3389 44.6417C31.0495 45.4169 31.9053 45.8045 32.9062 45.8045C33.9067 45.8045 34.7623 45.4169 35.4729 44.6417C36.1831 43.8664 36.5382 42.9331 36.5382 41.8417V21.1886C36.1215 21.4801 35.6817 21.6929 35.2188 21.8273C34.7558 21.9611 34.2697 22.028 33.7604 22.028C32.2947 22.028 31.0558 21.476 30.0437 20.372C29.0317 19.2679 28.5257 17.9162 28.5257 16.3167C28.5257 14.9338 28.9042 13.7152 29.6611 12.6606C30.4176 11.6056 31.4137 10.9556 32.6493 10.7106L26.8319 4.36515C26.5935 4.10455 26.4655 3.79748 26.4479 3.44394C26.4299 3.09041 26.5632 2.75833 26.8479 2.44773C27.1012 2.17197 27.3836 2.03106 27.6951 2.025C28.0067 2.01944 28.2995 2.16035 28.5736 2.44773L37.2326 11.8417C37.785 12.4437 38.2169 13.1351 38.5285 13.9159C38.84 14.6967 38.9958 15.497 38.9958 16.3167V41.8417C38.9958 43.7018 38.4081 45.274 37.2326 46.5583C36.0576 47.8427 34.619 48.4848 32.9167 48.4848C31.2143 48.4848 29.772 47.8427 28.5896 46.5583C27.4072 45.274 26.816 43.7018 26.816 41.8417V27.6227C26.816 27.0788 26.6558 26.6318 26.3354 26.2818C26.015 25.9323 25.6056 25.7576 25.1069 25.7576H22.2222V46.0371C22.2222 46.7306 22.0093 47.3119 21.5833 47.7811C21.1574 48.2503 20.6296 48.4848 20 48.4848H2.22153C1.59144 48.4848 1.06366 48.2503 0.638195 47.7811C0.212732 47.3119 0 46.7306 0 46.0371ZM2.77778 19.697H19.4444V4.89545C19.4444 4.42879 19.2664 4.00126 18.9104 3.61288C18.5544 3.2245 18.1625 3.0303 17.7347 3.0303H4.4875C4.05972 3.0303 3.66782 3.2245 3.31181 3.61288C2.95579 4.00126 2.77778 4.42879 2.77778 4.89545V19.697ZM33.7604 19.347C34.5475 19.347 35.2072 19.0566 35.7396 18.4758C36.272 17.8949 36.5382 17.1753 36.5382 16.3167C36.5382 15.4581 36.272 14.7384 35.7396 14.1576C35.2072 13.5768 34.5475 13.2864 33.7604 13.2864C32.9734 13.2864 32.3137 13.5768 31.7812 14.1576C31.2488 14.7384 30.9826 15.4581 30.9826 16.3167C30.9826 17.1753 31.2488 17.8949 31.7812 18.4758C32.3137 19.0566 32.9734 19.347 33.7604 19.347ZM2.77778 45.4545H19.4444V22.7273H2.77778V45.4545Z" fill="#FFF6E7"/>
</svg>
