<svg width="41" height="47" viewBox="0 0 41 47" fill="none" xmlns="http://www.w3.org/2000/svg">
<path d="M29.5525 10.7198H14.1987V4.86228C14.1987 2.55478 16.0625 0.779785 18.2812 0.779785H25.47C27.7775 0.779785 29.5525 2.64353 29.5525 4.86228V10.7198ZM16.8612 8.05729H26.9787V4.86228C26.9787 4.06353 26.3575 3.44229 25.5587 3.44229H18.37C17.5712 3.44229 16.95 4.06353 16.95 4.86228V8.05729H16.8612Z" fill="#FFF6E7"/>
<path d="M28.2212 46.22H5.23498C2.83873 46.22 0.88623 44.2675 0.88623 41.8712V21.8137C0.88623 20.1275 1.68498 18.53 3.01623 17.5537L14.9975 8.14624H28.9312L30.9725 11.1637C31.9487 12.6725 32.4812 14.3587 32.4812 16.2225V17.6425H29.8187V16.2225C29.8187 14.98 29.4637 13.7375 28.7537 12.6725L27.5112 10.8087H15.9737L4.70248 19.6837C3.99248 20.2162 3.63748 21.015 3.63748 21.9025V41.96C3.63748 42.8475 4.34748 43.6462 5.32373 43.6462H28.31C29.1975 43.6462 29.9962 42.9362 29.9962 41.96V36.8125H32.6587V41.8712C32.57 44.2675 30.6175 46.22 28.2212 46.22Z" fill="#FFF6E7"/>
<path d="M31.2387 38.6762C28.9312 38.6762 26.7125 37.7887 24.9375 36.1024C22.0087 33.1737 21.4762 28.4699 23.7837 25.0087L29.1975 16.6662C29.6412 15.9562 30.44 15.6012 31.2387 15.6012C32.0375 15.6012 32.8362 16.0449 33.28 16.6662L38.6938 25.0087C41.0013 28.4699 40.4688 33.1737 37.54 36.1024C35.765 37.8774 33.4575 38.6762 31.2387 38.6762ZM31.2387 18.4412L26.0025 26.4287C24.405 28.9137 24.76 32.1087 26.8012 34.2387C29.1975 36.6349 33.1912 36.6349 35.5875 34.2387C37.6287 32.1974 37.9837 28.9137 36.3862 26.4287L31.2387 18.4412ZM8.16374 39.3862C6.47749 39.3862 5.0575 38.0549 5.0575 36.2799V25.6299C5.0575 23.9437 6.38874 22.5237 8.16374 22.5237C9.84999 22.5237 11.27 23.8549 11.27 25.6299V36.2799C11.27 38.0549 9.84999 39.3862 8.16374 39.3862ZM8.16374 25.2749C7.98624 25.2749 7.72 25.4524 7.72 25.7187V36.3687C7.72 36.5462 7.89749 36.8124 8.16374 36.8124C8.34124 36.8124 8.6075 36.6349 8.6075 36.3687V25.7187C8.6075 25.4524 8.42999 25.2749 8.16374 25.2749ZM17.4825 9.38867H20.145V13.1162H17.4825V9.38867ZM23.1625 9.38867H25.825V13.1162H23.1625V9.38867Z" fill="#FFF6E7"/>
</svg>
