<svg width="37" height="45" viewBox="0 0 37 45" fill="none" xmlns="http://www.w3.org/2000/svg">
<path d="M4.14587 44.5832C3.26254 44.5832 2.48962 44.2519 1.82712 43.5894C1.16462 42.9269 0.833374 42.154 0.833374 41.2707V12.5623C0.833374 11.679 1.16462 10.9061 1.82712 10.2436C2.48962 9.58109 3.26254 9.24984 4.14587 9.24984H10.2188V8.69775C10.2188 6.379 11.0193 4.41911 12.6204 2.81807C14.2214 1.21702 16.1813 0.416504 18.5 0.416504C20.8188 0.416504 22.7787 1.21702 24.3797 2.81807C25.9808 4.41911 26.7813 6.379 26.7813 8.69775V9.24984H32.8542C33.7375 9.24984 34.5105 9.58109 35.173 10.2436C35.8355 10.9061 36.1667 11.679 36.1667 12.5623V41.2707C36.1667 42.154 35.8355 42.9269 35.173 43.5894C34.5105 44.2519 33.7375 44.5832 32.8542 44.5832H4.14587ZM4.14587 41.2707H32.8542V12.5623H26.7813V17.5311C26.7813 18.0004 26.6216 18.3936 26.3021 18.7109C25.983 19.0285 25.5873 19.1873 25.1151 19.1873C24.6433 19.1873 24.2509 19.0285 23.9381 18.7109C23.6252 18.3936 23.4688 18.0004 23.4688 17.5311V12.5623H13.5313V17.5311C13.5313 18.0004 13.3716 18.3936 13.0521 18.7109C12.733 19.0285 12.3373 19.1873 11.8651 19.1873C11.3933 19.1873 11.0009 19.0285 10.6881 18.7109C10.3752 18.3936 10.2188 18.0004 10.2188 17.5311V12.5623H4.14587V41.2707ZM13.5313 9.24984H23.4688V8.69775C23.4688 7.29914 22.9903 6.12136 22.0334 5.16442C21.0764 4.20748 19.8987 3.729 18.5 3.729C17.1014 3.729 15.9237 4.20748 14.9667 5.16442C14.0098 6.12136 13.5313 7.29914 13.5313 8.69775V9.24984Z" fill="#FFF6E7"/>
</svg>
