<svg width="46" height="43" viewBox="0 0 46 43" fill="none" xmlns="http://www.w3.org/2000/svg">
<path d="M39.7084 41.9978L26.2355 28.5853L29.6792 25.1415L43.1521 38.6145C43.6355 39.0978 43.8771 39.6617 43.8771 40.3061C43.8771 40.9506 43.6355 41.5145 43.1521 41.9978C42.6688 42.4811 42.0949 42.7228 41.4303 42.7228C40.7657 42.7228 40.1917 42.4811 39.7084 41.9978ZM4.60631 41.9978C4.12298 41.5145 3.88131 40.9405 3.88131 40.2759C3.88131 39.6113 4.12298 39.0374 4.60631 38.554L20.3751 22.7853L13.9105 16.3207L13.7896 16.4415C13.4271 16.804 13.0042 16.9853 12.5209 16.9853C12.0376 16.9853 11.6146 16.804 11.2521 16.4415L9.86256 15.052V20.9124C9.86256 21.3151 9.67124 21.587 9.2886 21.728C8.90596 21.869 8.57367 21.7985 8.29173 21.5165L1.16256 14.3874C0.880615 14.1054 0.810129 13.7731 0.951101 13.3905C1.09207 13.0079 1.36395 12.8165 1.76673 12.8165H7.68756L6.05631 11.1853C5.69381 10.8228 5.51256 10.3999 5.51256 9.91654C5.51256 9.4332 5.69381 9.01029 6.05631 8.64779L12.7021 2.00195C13.3869 1.31723 14.132 0.854036 14.9376 0.61237C15.7431 0.370703 16.6292 0.24987 17.5959 0.24987C18.4417 0.24987 19.1667 0.360634 19.7709 0.582161C20.3751 0.803689 21.0195 1.17626 21.7042 1.69987C21.9056 1.90126 22.0164 2.12279 22.0365 2.36445C22.0567 2.60612 21.966 2.82765 21.7646 3.02904L16.0251 8.76862L17.6563 10.3999C18.0188 10.7624 18.2001 11.1853 18.2001 11.6686C18.2001 12.152 18.0188 12.5749 17.6563 12.9374L17.4751 13.1186L23.7584 19.402L31.1292 12.0311C30.807 11.5075 30.5553 10.9033 30.374 10.2186C30.1928 9.5339 30.1021 8.8089 30.1021 8.04362C30.1021 5.9089 30.8775 4.06619 32.4282 2.51549C33.9789 0.9648 35.8216 0.189453 37.9563 0.189453C38.2785 0.189453 38.5705 0.199523 38.8324 0.219661C39.0942 0.2398 39.3258 0.290148 39.5271 0.370703C39.7688 0.491536 39.9199 0.682856 39.9803 0.944661C40.0407 1.20647 39.9702 1.43806 39.7688 1.63945L36.0834 5.32487C35.882 5.52626 35.7813 5.74779 35.7813 5.98945C35.7813 6.23112 35.882 6.45265 36.0834 6.65404L39.2855 9.85612C39.4869 10.0575 39.7084 10.1582 39.9501 10.1582C40.1917 10.1582 40.4133 10.0575 40.6146 9.85612L44.1792 6.29154C44.3806 6.09015 44.6424 6.00959 44.9646 6.04987C45.2869 6.09015 45.5084 6.25126 45.6292 6.5332C45.7098 6.77487 45.7601 7.02661 45.7803 7.28841C45.8004 7.55022 45.8105 7.84223 45.8105 8.16445C45.8105 10.2992 45.0351 12.1419 43.4844 13.6926C41.9337 15.2433 40.091 16.0186 37.9563 16.0186C37.2313 16.0186 36.607 15.9683 36.0834 15.8676C35.5598 15.7669 35.0765 15.6158 34.6334 15.4145L7.98964 42.0582C7.50631 42.5415 6.94242 42.7731 6.29798 42.753C5.65353 42.7329 5.08964 42.4811 4.60631 41.9978Z" fill="#FFF6E7"/>
</svg>
